<?xml version="1.0" encoding="UTF-8"?><svg xmlns:svg="http://www.w3.org/2000/svg" xmlns="http://www.w3.org/2000/svg" xmlns:xlink="http://www.w3.org/1999/xlink" version="2.0" width="1200" height="1580" ><style >
svg {
  font-family: Helvetica, Arial, sans-serif;
  font-size: 11px;
}
rect {
  stroke-linecap: butt;
  stroke-width: 3;
  stroke: #fff;
/*  stroke-opacity: 1; */
}
rect:hover {
  stroke: #fff;
/*  stroke-opacity: 1; /*
}
polygon { fill: #000; }</style><defs ><polygon id="ahead" points="0 0, -12 4, -12 -4" /><filter id="glow" x="0" y="0" ><feGaussianBlur in="SourceAlpha" stdDeviation="2" result="blurred" /><feFlood flood-color="#fff" /><feComposite operator="in" in2="blurred" /><feComponentTransfer ><feFuncA type="linear" slope="10" intercept="0" /></feComponentTransfer><feMerge ><feMergeNode /><feMergeNode in="SourceGraphic" /></feMerge></filter></defs><g ><text x="100.0" y="20.0" text-anchor="middle" alignment-baseline="middle" fill="#000" >c6</text><text x="100.0" y="1020.0" text-anchor="middle" alignment-baseline="middle" fill="#aaa" >c6</text><text x="300.0" y="20.0" text-anchor="middle" alignment-baseline="middle" fill="#000" >c7</text><text x="300.0" y="1020.0" text-anchor="middle" alignment-baseline="middle" fill="#aaa" >c7</text><text x="500.0" y="20.0" text-anchor="middle" alignment-baseline="middle" fill="#000" >c8</text><text x="500.0" y="1020.0" text-anchor="middle" alignment-baseline="middle" fill="#aaa" >c8</text><text x="700.0" y="20.0" text-anchor="middle" alignment-baseline="middle" fill="#000" >n0</text><text x="700.0" y="1020.0" text-anchor="middle" alignment-baseline="middle" fill="#aaa" >n0</text><text x="900.0" y="20.0" text-anchor="middle" alignment-baseline="middle" fill="#000" >n1</text><text x="900.0" y="1020.0" text-anchor="middle" alignment-baseline="middle" fill="#aaa" >n1</text><text x="1100.0" y="20.0" text-anchor="middle" alignment-baseline="middle" fill="#000" >n2</text><text x="1100.0" y="1020.0" text-anchor="middle" alignment-baseline="middle" fill="#aaa" >n2</text></g><g ><line stroke="#ccc" x1="100.0" y1="30.0" x2="100.0" y2="1490.0" /><line stroke="#ccc" x1="300.0" y1="30.0" x2="300.0" y2="1490.0" /><line stroke="#ccc" x1="500.0" y1="30.0" x2="500.0" y2="1490.0" /><line stroke="#ccc" x1="700.0" y1="30.0" x2="700.0" y2="1490.0" /><line stroke="#ccc" x1="900.0" y1="30.0" x2="900.0" y2="1490.0" /><line stroke="#ccc" x1="1100.0" y1="30.0" x2="1100.0" y2="1490.0" /></g><g ><g transform="translate(100.0 50.0) rotate(1.4320961841646465) " ><rect x="0" y="-2.5" height="5" width="796.2499609497023" fill="#81BFFC" ><title >c6 → n1 {:type "generate", :msg_id 1}</title></rect><use xlink:href="#ahead" x="800.2499609497023" y="0" /><text text-anchor="middle" x="400.12498047485116" y="-4" transform="" filter="url(#glow)" style="fill: #fff" >generate {}</text><text text-anchor="middle" x="400.12498047485116" y="-4" transform="" >generate {}</text></g><g transform="translate(300.0 90.0) rotate(2.862405226111748) " ><rect x="0" y="-2.5" height="5" width="796.9993757800314" fill="#81BFFC" ><title >c7 → n2 {:type "generate", :msg_id 1}</title></rect><use xlink:href="#ahead" x="800.9993757800314" y="0" /><text text-anchor="middle" x="400.4996878900157" y="-4" transform="" filter="url(#glow)" style="fill: #fff" >generate {}</text><text text-anchor="middle" x="400.4996878900157" y="-4" transform="" >generate {}</text></g><g transform="translate(900.0 110.0) rotate(177.13759477388828) " ><rect x="0" y="-2.5" height="5" width="796.9993757800314" fill="#81BFFC" ><title >n1 → c6 {:type "generate_ok", :msg_id 1, :id 1}</title></rect><use xlink:href="#ahead" x="800.9993757800314" y="0" /><text text-anchor="middle" x="400.4996878900157" y="-4" transform="rotate(180 400.4996878900157 0)" filter="url(#glow)" style="fill: #fff" >generate_ok {:id 1}</text><text text-anchor="middle" x="400.4996878900157" y="-4" transform="rotate(180 400.4996878900157 0)" >generate_ok {:id 1}</text></g><g transform="translate(1100.0 190.0) rotate(178.56790381583536) " ><rect x="0" y="-2.5" height="5" width="796.2499609497023" fill="#81BFFC" ><title >n2 → c7 {:type "generate_ok", :msg_id 1, :id 1}</title></rect><use xlink:href="#ahead" x="800.2499609497023" y="0" /><text text-anchor="middle" x="400.12498047485116" y="-4" transform="rotate(180 400.12498047485116 0)" filter="url(#glow)" style="fill: #fff" >generate_ok {:id 1}</text><text text-anchor="middle" x="400.12498047485116" y="-4" transform="rotate(180 400.12498047485116 0)" >generate_ok {:id 1}</text></g><g transform="translate(500.0 170.0) rotate(16.69924423399362) " ><rect x="0" y="-2.5" height="5" width="204.806130178211" fill="#81BFFC" ><title >c8 → n0 {:type "generate", :msg_id 1}</title></rect><use xlink:href="#ahead" x="208.806130178211" y="0" /><text text-anchor="middle" x="104.4030650891055" y="-4" transform="" filter="url(#glow)" style="fill: #fff" >generate {}</text><text text-anchor="middle" x="104.4030650891055" y="-4" transform="" >generate {}</text></g><g transform="translate(700.0 250.0) rotate(174.28940686250036) " ><rect x="0" y="-2.5" height="5" width="196.9975124224178" fill="#81BFFC" ><title >n0 → c8 {:type "generate_ok", :msg_id 1, :id 1}</title></rect><use xlink:href="#ahead" x="200.9975124224178" y="0" /><text text-anchor="middle" x="100.4987562112089" y="-4" transform="rotate(180 100.4987562112089 0)" filter="url(#glow)" style="fill: #fff" >generate_ok {:id 1}</text><text text-anchor="middle" x="100.4987562112089" y="-4" transform="rotate(180 100.4987562112089 0)" >generate_ok {:id 1}</text></g><g transform="translate(300.0 290.0) rotate(1.4320961841646465) " ><rect x="0" y="-2.5" height="5" width="796.2499609497023" fill="#81BFFC" ><title >c7 → n2 {:type "generate", :msg_id 2}</title></rect><use xlink:href="#ahead" x="800.2499609497023" y="0" /><text text-anchor="middle" x="400.12498047485116" y="-4" transform="" filter="url(#glow)" style="fill: #fff" >generate {}</text><text text-anchor="middle" x="400.12498047485116" y="-4" transform="" >generate {}</text></g><g transform="translate(100.0 330.0) rotate(2.862405226111748) " ><rect x="0" y="-2.5" height="5" width="796.9993757800314" fill="#81BFFC" ><title >c6 → n1 {:type "generate", :msg_id 2}</title></rect><use xlink:href="#ahead" x="800.9993757800314" y="0" /><text text-anchor="middle" x="400.4996878900157" y="-4" transform="" filter="url(#glow)" style="fill: #fff" >generate {}</text><text text-anchor="middle" x="400.4996878900157" y="-4" transform="" >generate {}</text></g><g transform="translate(1100.0 350.0) rotate(177.13759477388828) " ><rect x="0" y="-2.5" height="5" width="796.9993757800314" fill="#81BFFC" ><title >n2 → c7 {:type "generate_ok", :msg_id 2, :id 2}</title></rect><use xlink:href="#ahead" x="800.9993757800314" y="0" /><text text-anchor="middle" x="400.4996878900157" y="-4" transform="rotate(180 400.4996878900157 0)" filter="url(#glow)" style="fill: #fff" >generate_ok {:id 2}</text><text text-anchor="middle" x="400.4996878900157" y="-4" transform="rotate(180 400.4996878900157 0)" >generate_ok {:id 2}</text></g><g transform="translate(900.0 410.0) rotate(177.13759477388828) " ><rect x="0" y="-2.5" height="5" width="796.9993757800314" fill="#81BFFC" ><title >n1 → c6 {:type "generate_ok", :msg_id 2, :id 2}</title></rect><use xlink:href="#ahead" x="800.9993757800314" y="0" /><text text-anchor="middle" x="400.4996878900157" y="-4" transform="rotate(180 400.4996878900157 0)" filter="url(#glow)" style="fill: #fff" >generate_ok {:id 2}</text><text text-anchor="middle" x="400.4996878900157" y="-4" transform="rotate(180 400.4996878900157 0)" >generate_ok {:id 2}</text></g><g transform="translate(500.0 430.0) rotate(11.309932474020215) " ><rect x="0" y="-2.5" height="5" width="199.9607805437114" fill="#81BFFC" ><title >c8 → n0 {:type "generate", :msg_id 2}</title></rect><use xlink:href="#ahead" x="203.9607805437114" y="0" /><text text-anchor="middle" x="101.9803902718557" y="-4" transform="" filter="url(#glow)" style="fill: #fff" >generate {}</text><text text-anchor="middle" x="101.9803902718557" y="-4" transform="" >generate {}</text></g><g transform="translate(700.0 490.0) rotate(174.28940686250036) " ><rect x="0" y="-2.5" height="5" width="196.9975124224178" fill="#81BFFC" ><title >n0 → c8 {:type "generate_ok", :msg_id 2, :id 2}</title></rect><use xlink:href="#ahead" x="200.9975124224178" y="0" /><text text-anchor="middle" x="100.4987562112089" y="-4" transform="rotate(180 100.4987562112089 0)" filter="url(#glow)" style="fill: #fff" >generate_ok {:id 2}</text><text text-anchor="middle" x="100.4987562112089" y="-4" transform="rotate(180 100.4987562112089 0)" >generate_ok {:id 2}</text></g><g transform="translate(500.0 530.0) rotate(5.710593137499643) " ><rect x="0" y="-2.5" height="5" width="196.9975124224178" fill="#81BFFC" ><title >c8 → n0 {:type "generate", :msg_id 3}</title></rect><use xlink:href="#ahead" x="200.9975124224178" y="0" /><text text-anchor="middle" x="100.4987562112089" y="-4" transform="" filter="url(#glow)" style="fill: #fff" >generate {}</text><text text-anchor="middle" x="100.4987562112089" y="-4" transform="" >generate {}</text></g><g transform="translate(700.0 570.0) rotate(174.28940686250036) " ><rect x="0" y="-2.5" height="5" width="196.9975124224178" fill="#81BFFC" ><title >n0 → c8 {:type "generate_ok", :msg_id 3, :id 3}</title></rect><use xlink:href="#ahead" x="200.9975124224178" y="0" /><text text-anchor="middle" x="100.4987562112089" y="-4" transform="rotate(180 100.4987562112089 0)" filter="url(#glow)" style="fill: #fff" >generate_ok {:id 3}</text><text text-anchor="middle" x="100.4987562112089" y="-4" transform="rotate(180 100.4987562112089 0)" >generate_ok {:id 3}</text></g><g transform="translate(300.0 610.0) rotate(1.4320961841646465) " ><rect x="0" y="-2.5" height="5" width="796.2499609497023" fill="#81BFFC" ><title >c7 → n2 {:type "generate", :msg_id 3}</title></rect><use xlink:href="#ahead" x="800.2499609497023" y="0" /><text text-anchor="middle" x="400.12498047485116" y="-4" transform="" filter="url(#glow)" style="fill: #fff" >generate {}</text><text text-anchor="middle" x="400.12498047485116" y="-4" transform="" >generate {}</text></g><g transform="translate(1100.0 650.0) rotate(178.56790381583536) " ><rect x="0" y="-2.5" height="5" width="796.2499609497023" fill="#81BFFC" ><title >n2 → c7 {:type "generate_ok", :msg_id 3, :id 3}</title></rect><use xlink:href="#ahead" x="800.2499609497023" y="0" /><text text-anchor="middle" x="400.12498047485116" y="-4" transform="rotate(180 400.12498047485116 0)" filter="url(#glow)" style="fill: #fff" >generate_ok {:id 3}</text><text text-anchor="middle" x="400.12498047485116" y="-4" transform="rotate(180 400.12498047485116 0)" >generate_ok {:id 3}</text></g><g transform="translate(100.0 690.0) rotate(1.4320961841646465) " ><rect x="0" y="-2.5" height="5" width="796.2499609497023" fill="#81BFFC" ><title >c6 → n1 {:type "generate", :msg_id 3}</title></rect><use xlink:href="#ahead" x="800.2499609497023" y="0" /><text text-anchor="middle" x="400.12498047485116" y="-4" transform="" filter="url(#glow)" style="fill: #fff" >generate {}</text><text text-anchor="middle" x="400.12498047485116" y="-4" transform="" >generate {}</text></g><g transform="translate(900.0 730.0) rotate(178.56790381583536) " ><rect x="0" y="-2.5" height="5" width="796.2499609497023" fill="#81BFFC" ><title >n1 → c6 {:type "generate_ok", :msg_id 3, :id 3}</title></rect><use xlink:href="#ahead" x="800.2499609497023" y="0" /><text text-anchor="middle" x="400.12498047485116" y="-4" transform="rotate(180 400.12498047485116 0)" filter="url(#glow)" style="fill: #fff" >generate_ok {:id 3}</text><text text-anchor="middle" x="400.12498047485116" y="-4" transform="rotate(180 400.12498047485116 0)" >generate_ok {:id 3}</text></g><g transform="translate(500.0 770.0) rotate(5.710593137499643) " ><rect x="0" y="-2.5" height="5" width="196.9975124224178" fill="#81BFFC" ><title >c8 → n0 {:type "generate", :msg_id 4}</title></rect><use xlink:href="#ahead" x="200.9975124224178" y="0" /><text text-anchor="middle" x="100.4987562112089" y="-4" transform="" filter="url(#glow)" style="fill: #fff" >generate {}</text><text text-anchor="middle" x="100.4987562112089" y="-4" transform="" >generate {}</text></g><g transform="translate(100.0 810.0) rotate(1.4320961841646465) " ><rect x="0" y="-2.5" height="5" width="796.2499609497023" fill="#81BFFC" ><title >c6 → n1 {:type "generate", :msg_id 4}</title></rect><use xlink:href="#ahead" x="800.2499609497023" y="0" /><text text-anchor="middle" x="400.12498047485116" y="-4" transform="" filter="url(#glow)" style="fill: #fff" >generate {}</text><text text-anchor="middle" x="400.12498047485116" y="-4" transform="" >generate {}</text></g><g transform="translate(700.0 850.0) rotate(174.28940686250036) " ><rect x="0" y="-2.5" height="5" width="196.9975124224178" fill="#81BFFC" ><title >n0 → c8 {:type "generate_ok", :msg_id 4, :id 4}</title></rect><use xlink:href="#ahead" x="200.9975124224178" y="0" /><text text-anchor="middle" x="100.4987562112089" y="-4" transform="rotate(180 100.4987562112089 0)" filter="url(#glow)" style="fill: #fff" >generate_ok {:id 4}</text><text text-anchor="middle" x="100.4987562112089" y="-4" transform="rotate(180 100.4987562112089 0)" >generate_ok {:id 4}</text></g><g transform="translate(900.0 890.0) rotate(178.56790381583536) " ><rect x="0" y="-2.5" height="5" width="796.2499609497023" fill="#81BFFC" ><title >n1 → c6 {:type "generate_ok", :msg_id 4, :id 4}</title></rect><use xlink:href="#ahead" x="800.2499609497023" y="0" /><text text-anchor="middle" x="400.12498047485116" y="-4" transform="rotate(180 400.12498047485116 0)" filter="url(#glow)" style="fill: #fff" >generate_ok {:id 4}</text><text text-anchor="middle" x="400.12498047485116" y="-4" transform="rotate(180 400.12498047485116 0)" >generate_ok {:id 4}</text></g><g transform="translate(300.0 930.0) rotate(1.4320961841646465) " ><rect x="0" y="-2.5" height="5" width="796.2499609497023" fill="#81BFFC" ><title >c7 → n2 {:type "generate", :msg_id 4}</title></rect><use xlink:href="#ahead" x="800.2499609497023" y="0" /><text text-anchor="middle" x="400.12498047485116" y="-4" transform="" filter="url(#glow)" style="fill: #fff" >generate {}</text><text text-anchor="middle" x="400.12498047485116" y="-4" transform="" >generate {}</text></g><g transform="translate(1100.0 970.0) rotate(178.56790381583536) " ><rect x="0" y="-2.5" height="5" width="796.2499609497023" fill="#81BFFC" ><title >n2 → c7 {:type "generate_ok", :msg_id 4, :id 4}</title></rect><use xlink:href="#ahead" x="800.2499609497023" y="0" /><text text-anchor="middle" x="400.12498047485116" y="-4" transform="rotate(180 400.12498047485116 0)" filter="url(#glow)" style="fill: #fff" >generate_ok {:id 4}</text><text text-anchor="middle" x="400.12498047485116" y="-4" transform="rotate(180 400.12498047485116 0)" >generate_ok {:id 4}</text></g><g transform="translate(500.0 1010.0) rotate(5.710593137499643) " ><rect x="0" y="-2.5" height="5" width="196.9975124224178" fill="#81BFFC" ><title >c8 → n0 {:type "generate", :msg_id 5}</title></rect><use xlink:href="#ahead" x="200.9975124224178" y="0" /><text text-anchor="middle" x="100.4987562112089" y="-4" transform="" filter="url(#glow)" style="fill: #fff" >generate {}</text><text text-anchor="middle" x="100.4987562112089" y="-4" transform="" >generate {}</text></g><g transform="translate(100.0 1050.0) rotate(2.862405226111748) " ><rect x="0" y="-2.5" height="5" width="796.9993757800314" fill="#81BFFC" ><title >c6 → n1 {:type "generate", :msg_id 5}</title></rect><use xlink:href="#ahead" x="800.9993757800314" y="0" /><text text-anchor="middle" x="400.4996878900157" y="-4" transform="" filter="url(#glow)" style="fill: #fff" >generate {}</text><text text-anchor="middle" x="400.4996878900157" y="-4" transform="" >generate {}</text></g><g transform="translate(700.0 1070.0) rotate(168.69006752597983) " ><rect x="0" y="-2.5" height="5" width="199.9607805437114" fill="#81BFFC" ><title >n0 → c8 {:type "generate_ok", :msg_id 5, :id 5}</title></rect><use xlink:href="#ahead" x="203.9607805437114" y="0" /><text text-anchor="middle" x="101.9803902718557" y="-4" transform="rotate(180 101.9803902718557 0)" filter="url(#glow)" style="fill: #fff" >generate_ok {:id 5}</text><text text-anchor="middle" x="101.9803902718557" y="-4" transform="rotate(180 101.9803902718557 0)" >generate_ok {:id 5}</text></g><g transform="translate(900.0 1130.0) rotate(178.56790381583536) " ><rect x="0" y="-2.5" height="5" width="796.2499609497023" fill="#81BFFC" ><title >n1 → c6 {:type "generate_ok", :msg_id 5, :id 5}</title></rect><use xlink:href="#ahead" x="800.2499609497023" y="0" /><text text-anchor="middle" x="400.12498047485116" y="-4" transform="rotate(180 400.12498047485116 0)" filter="url(#glow)" style="fill: #fff" >generate_ok {:id 5}</text><text text-anchor="middle" x="400.12498047485116" y="-4" transform="rotate(180 400.12498047485116 0)" >generate_ok {:id 5}</text></g><g transform="translate(300.0 1170.0) rotate(1.4320961841646465) " ><rect x="0" y="-2.5" height="5" width="796.2499609497023" fill="#81BFFC" ><title >c7 → n2 {:type "generate", :msg_id 5}</title></rect><use xlink:href="#ahead" x="800.2499609497023" y="0" /><text text-anchor="middle" x="400.12498047485116" y="-4" transform="" filter="url(#glow)" style="fill: #fff" >generate {}</text><text text-anchor="middle" x="400.12498047485116" y="-4" transform="" >generate {}</text></g><g transform="translate(1100.0 1210.0) rotate(178.56790381583536) " ><rect x="0" y="-2.5" height="5" width="796.2499609497023" fill="#81BFFC" ><title >n2 → c7 {:type "generate_ok", :msg_id 5, :id 5}</title></rect><use xlink:href="#ahead" x="800.2499609497023" y="0" /><text text-anchor="middle" x="400.12498047485116" y="-4" transform="rotate(180 400.12498047485116 0)" filter="url(#glow)" style="fill: #fff" >generate_ok {:id 5}</text><text text-anchor="middle" x="400.12498047485116" y="-4" transform="rotate(180 400.12498047485116 0)" >generate_ok {:id 5}</text></g><g transform="translate(500.0 1250.0) rotate(5.710593137499643) " ><rect x="0" y="-2.5" height="5" width="196.9975124224178" fill="#81BFFC" ><title >c8 → n0 {:type "generate", :msg_id 6}</title></rect><use xlink:href="#ahead" x="200.9975124224178" y="0" /><text text-anchor="middle" x="100.4987562112089" y="-4" transform="" filter="url(#glow)" style="fill: #fff" >generate {}</text><text text-anchor="middle" x="100.4987562112089" y="-4" transform="" >generate {}</text></g><g transform="translate(700.0 1290.0) rotate(174.28940686250036) " ><rect x="0" y="-2.5" height="5" width="196.9975124224178" fill="#81BFFC" ><title >n0 → c8 {:type "generate_ok", :msg_id 6, :id 6}</title></rect><use xlink:href="#ahead" x="200.9975124224178" y="0" /><text text-anchor="middle" x="100.4987562112089" y="-4" transform="rotate(180 100.4987562112089 0)" filter="url(#glow)" style="fill: #fff" >generate_ok {:id 6}</text><text text-anchor="middle" x="100.4987562112089" y="-4" transform="rotate(180 100.4987562112089 0)" >generate_ok {:id 6}</text></g><g transform="translate(300.0 1330.0) rotate(1.4320961841646465) " ><rect x="0" y="-2.5" height="5" width="796.2499609497023" fill="#81BFFC" ><title >c7 → n2 {:type "generate", :msg_id 6}</title></rect><use xlink:href="#ahead" x="800.2499609497023" y="0" /><text text-anchor="middle" x="400.12498047485116" y="-4" transform="" filter="url(#glow)" style="fill: #fff" >generate {}</text><text text-anchor="middle" x="400.12498047485116" y="-4" transform="" >generate {}</text></g><g transform="translate(100.0 1370.0) rotate(2.862405226111748) " ><rect x="0" y="-2.5" height="5" width="796.9993757800314" fill="#81BFFC" ><title >c6 → n1 {:type "generate", :msg_id 6}</title></rect><use xlink:href="#ahead" x="800.9993757800314" y="0" /><text text-anchor="middle" x="400.4996878900157" y="-4" transform="" filter="url(#glow)" style="fill: #fff" >generate {}</text><text text-anchor="middle" x="400.4996878900157" y="-4" transform="" >generate {}</text></g><g transform="translate(1100.0 1390.0) rotate(177.13759477388828) " ><rect x="0" y="-2.5" height="5" width="796.9993757800314" fill="#81BFFC" ><title >n2 → c7 {:type "generate_ok", :msg_id 6, :id 6}</title></rect><use xlink:href="#ahead" x="800.9993757800314" y="0" /><text text-anchor="middle" x="400.4996878900157" y="-4" transform="rotate(180 400.4996878900157 0)" filter="url(#glow)" style="fill: #fff" >generate_ok {:id 6}</text><text text-anchor="middle" x="400.4996878900157" y="-4" transform="rotate(180 400.4996878900157 0)" >generate_ok {:id 6}</text></g><g transform="translate(900.0 1450.0) rotate(178.56790381583536) " ><rect x="0" y="-2.5" height="5" width="796.2499609497023" fill="#81BFFC" ><title >n1 → c6 {:type "generate_ok", :msg_id 6, :id 6}</title></rect><use xlink:href="#ahead" x="800.2499609497023" y="0" /><text text-anchor="middle" x="400.12498047485116" y="-4" transform="rotate(180 400.12498047485116 0)" filter="url(#glow)" style="fill: #fff" >generate_ok {:id 6}</text><text text-anchor="middle" x="400.12498047485116" y="-4" transform="rotate(180 400.12498047485116 0)" >generate_ok {:id 6}</text></g></g></svg>